<svg width="128" height="128" viewBox="0 0 128 128" xmlns="http://www.w3.org/2000/svg">
  <defs>
    <linearGradient id="bg" x1="0" y1="0" x2="128" y2="128" gradientUnits="userSpaceOnUse">
      <stop offset="0%" stop-color="#0D9488"/>
      <stop offset="100%" stop-color="#0F766E"/>
    </linearGradient>
  </defs>
  <rect width="128" height="128" rx="18" fill="url(#bg)"/>
  
  <!-- Left Page -->
  <path d="M56 108 C36 100 21 100 16 104 V41 C21 37 36 37 56 45 V108 Z" fill="#FFFFFF"/>
  <!-- Right Page -->
  <path d="M72 108 C92 100 107 100 112 104 V41 C107 37 92 37 72 45 V108 Z" fill="#FFFFFF"/>
  <!-- Spine -->
  <rect x="56" y="44" width="16" height="64" rx="4" fill="#CCFBF1"/>
  <line x1="64" y1="45" x2="64" y2="107" stroke="#0D9488" stroke-width="4"/>
  
  <!-- Lines on pages -->
  <line x1="25" y1="56" x2="48" y2="61" stroke="#0F766E" stroke-width="4.5" stroke-linecap="round"/>
  <line x1="25" y1="72" x2="48" y2="77" stroke="#0F766E" stroke-width="4.5" stroke-linecap="round"/>
  <line x1="25" y1="88" x2="48" y2="93" stroke="#0F766E" stroke-width="4.5" stroke-linecap="round"/>
  <line x1="80" y1="61" x2="103" y2="56" stroke="#0F766E" stroke-width="4.5" stroke-linecap="round"/>
  <line x1="80" y1="77" x2="103" y2="72" stroke="#0F766E" stroke-width="4.5" stroke-linecap="round"/>
  <line x1="80" y1="93" x2="103" y2="88" stroke="#0F766E" stroke-width="4.5" stroke-linecap="round"/>
  
  <!-- AI Spark -->
  <path d="M64 6 C64 17 69 21 84 23 C69 25 64 29 64 40 C64 29 59 25 44 23 C59 21 64 17 64 6 Z" fill="#FEF08A"/>
  <circle cx="64" cy="23" r="5" fill="#FFFFFF"/>
</svg>